<?xml version="1.0" encoding="utf-8"?>
<!-- Generator: Adobe Illustrator 22.0.1, SVG Export Plug-In . SVG Version: 6.00 Build 0)  -->
<svg version="1.1" id="Layer_1" xmlns="http://www.w3.org/2000/svg" xmlns:xlink="http://www.w3.org/1999/xlink" x="0px" y="0px"
	 viewBox="0 0 17 23" style="enable-background:new 0 0 17 23;" xml:space="preserve">
<style type="text/css">
	.st0{fill:#7961AB;}
</style>
<title>np_trending_1126650_000000</title>
<desc>Created with Sketch.</desc>
<g id="Product-2" transform="translate(-722.000000, -604.000000)">
	<g id="Group-12" transform="translate(272.000000, 163.000000)">
		<g id="Group-15" transform="translate(50.000000, 432.000000)">
			<g id="np_trending_1126650_000000" transform="translate(400.000000, 9.000000)">
				<path id="Shape" class="st0" d="M10.5,0c-0.2,0-0.3,0.1-0.5,0.2c0,0-1.6,1.2-2.8,3.1S5.2,8,6.8,10.8c0.7,1.2,0.6,2,0.3,2.6
					c-0.3,0.5-0.9,0.8-1.4,0.7c-0.5-0.1-1-0.2-1.4-0.8C4,12.7,3.6,11.7,3.6,9.9v0c0-0.3-0.1-0.5-0.3-0.7C3.1,9.1,2.8,9.1,2.5,9.1
					c0,0-0.7,0.3-1.3,1.1c-0.6,0.8-1.2,2-1.2,4C0,19.1,3.8,23,8.7,23c3.2,0,5.9-1.7,7.4-4.2c0.5-0.8,0.8-1.9,0.9-3.2
					c0.1-1.3-0.1-2.7-0.9-4c-0.7-1.2-1.6-1.9-2.4-2.6c-0.8-0.7-1.5-1.4-2.1-2.6C10.5,4.4,11.4,1,11.4,1h0c0.1-0.3,0-0.5-0.1-0.7
					C11,0.1,10.8,0,10.5,0L10.5,0z M9.4,3.3c0,1.2,0.1,2.6,0.7,3.9c0.7,1.5,1.6,2.3,2.5,3.1c0.8,0.7,1.5,1.3,2.1,2.3
					c0.5,0.9,0.7,2,0.7,3c-0.1,1-0.4,2-0.7,2.4c-1.2,2-3.4,3.4-6,3.4c-4,0-7.1-3.1-7.1-7.2c0-1.2,0.3-1.9,0.5-2.4
					c0.2,1,0.4,1.9,0.9,2.5c0.7,0.9,1.7,1.3,2.5,1.4c1.2,0.1,2.4-0.4,3-1.5c0.6-1.1,0.6-2.6-0.3-4.2C7,7.8,7.7,5.8,8.7,4.2
					C8.9,3.8,9.2,3.6,9.4,3.3L9.4,3.3z"/>
			</g>
		</g>
	</g>
</g>
</svg>
